#N canvas 0 50 1920 998 10;
#X obj 101 38 keyname;
#X symbolatom 150 173 10 0 0 0 - - -, f 10;
#X obj 171 371 bng 15 250 50 0 empty empty empty 17 7 0 10 -262144
-1 -1;
#X obj 174 255 change;
#X obj 149 198 sel Shift_L;
#X msg 148 220 888;
#X obj 264 114 keyup;
#X obj 268 298 f 0;
#X msg 306 272 1;
#X obj 277 338 sel 1;
#X obj 278 373 bng 15 250 50 0 empty empty empty 17 7 0 10 -262144
-1 -1;
#X obj 172 289 sel 888;
#X obj 276 204 bng 15 250 50 0 empty empty empty 17 7 0 10 -262144
-1 -1;
#X text 140 402 down;
#X text 280 402 up;
#X msg 339 272 0;
#X msg 223 226 0;
#X floatatom 250 839 5 0 0 0 - - -, f 5;
#X msg 222 588 14;
#X msg 260 587 100;
#X obj 319 419 loadbang;
#X floatatom 363 310 5 0 0 0 - - -, f 5;
#X obj 383 191 spigot;
#X msg 371 157 0;
#X msg 414 149 1;
#X obj 420 170 tgl 15 0 empty empty empty 17 7 0 10 -262144 -1 -1 0
1;
#X obj 276 134 delay 500;
#X obj 330 462 keyname;
#X obj 469 397 key;
#X obj -230 68 sel Insert Delete End Down Next Left Clear Right Home
Up Prior;
#X obj 40 455 s shiftDown;
#X obj 139 457 s shiftUp;
#X text 225 568 STOP;
#X text 272 568 NOMINAL;
#X obj 631 538 r shiftDown;
#X obj 657 558 r shiftUp;
#X msg 672 582 0;
#X msg 631 582 1;
#X obj 640 615 f 0;
#X obj 640 638 sel 1;
#X msg 627 669 1;
#X obj 624 689 +;
#X obj 627 713 f;
#X obj 475 580 bng 15 250 50 0 empty empty empty 17 7 0 10 -262144
-1 -1;
#X obj 448 423 sel 43;
#X msg 440 445 0;
#X obj 439 492 tgl 15 0 empty empty empty 17 7 0 10 -262144 -1 -1 1
1;
#X obj 386 548 spigot;
#X obj 385 572 bng 15 250 50 0 empty empty empty 17 7 0 10 -262144
-1 -1;
#X obj 440 465 delay 2;
#X obj 364 502 t b s;
#X obj 415 620 loadbang;
#X msg 475 807 14;
#X msg 515 807 200;
#X msg 559 808 400;
#X msg 597 808 800;
#X obj 445 584 bng 15 250 50 0 empty empty empty 17 7 0 10 -262144
-1 -1;
#X obj 529 537 r shiftDown;
#X obj 555 557 r shiftUp;
#X msg 570 581 0;
#X msg 529 581 1;
#X obj 538 614 f 0;
#X obj 539 635 sel 1;
#X msg 568 663 -1;
#X msg 470 725 -4;
#X floatatom 661 768 5 0 0 0 - - -, f 5;
#X msg 425 806 -100;
#X msg 387 806 -200;
#X msg 343 805 -400;
#X msg 300 805 -800;
#X msg 515 706 3;
#X obj 279 399 delay 50;
#X obj 449 779 sel -4 -3 -2 -1 0 1 2 3 4;
#X obj 631 747 sel -5 4;
#X msg 263 808 100;
#X msg 416 655 0, f 1;
#X msg 479 650 5;
#X msg 249 858 \$1 250;
#X obj 249 880 line;
#X floatatom 203 117 5 0 0 0 - - -, f 5;
#X text 198 132 SPEED;
#X floatatom 104 115 5 0 0 0 - - -, f 5;
#X text 99 130 SPEED display;
#X msg 381 862 1, f 1;
#X msg 367 862 0, f 1;
#X msg 396 862 2, f 1;
#X msg 410 862 4, f 1;
#X msg 425 862 8, f 1;
#X msg 353 862 -1, f 1;
#X msg 339 862 -2, f 1;
#X msg 324 862 -4, f 1;
#X msg 310 862 -8, f 1;
#X text 36 431 Pvoc_event;
#X text 142 433 Nominal_event;
#X obj 114 947 s speedShift;
#X obj -70 947 s shiftPVOC;
#X obj 29 948 s shiftNOM;
#X obj -69 886 delay 125;
#X obj 32 889 delay 250;
#X obj 1084 669 s shift-;
#X obj 1076 696 s shift+;
#X obj 1093 736 s shift;
#X obj 450 548 sel - + M P;
#X connect 0 1 29 0;
#X connect 1 0 4 0;
#X connect 2 0 8 0;
#X connect 2 0 18 0;
#X connect 2 0 30 0;
#X connect 2 0 97 0;
#X connect 2 0 101 0;
#X connect 3 0 11 0;
#X connect 4 0 5 0;
#X connect 4 0 24 0;
#X connect 4 1 16 0;
#X connect 4 1 23 0;
#X connect 5 0 3 0;
#X connect 6 0 26 0;
#X connect 7 0 9 0;
#X connect 7 0 21 0;
#X connect 8 0 7 1;
#X connect 9 0 10 0;
#X connect 10 0 15 0;
#X connect 10 0 71 0;
#X connect 11 0 2 0;
#X connect 12 0 7 0;
#X connect 15 0 7 1;
#X connect 16 0 3 0;
#X connect 17 0 77 0;
#X connect 19 0 17 0;
#X connect 20 0 19 0;
#X connect 22 0 12 0;
#X connect 23 0 25 0;
#X connect 24 0 25 0;
#X connect 25 0 22 1;
#X connect 26 0 22 0;
#X connect 27 1 50 0;
#X connect 28 0 44 0;
#X connect 29 11 1 0;
#X connect 34 0 37 0;
#X connect 35 0 36 0;
#X connect 36 0 38 1;
#X connect 37 0 38 1;
#X connect 38 0 39 0;
#X connect 39 0 40 0;
#X connect 40 0 41 0;
#X connect 41 0 42 0;
#X connect 42 0 41 1;
#X connect 42 0 73 0;
#X connect 43 0 38 0;
#X connect 43 0 100 0;
#X connect 44 0 45 0;
#X connect 45 0 49 0;
#X connect 46 0 47 1;
#X connect 47 0 48 0;
#X connect 47 0 102 0;
#X connect 49 0 46 0;
#X connect 50 0 49 0;
#X connect 50 1 47 0;
#X connect 51 0 75 0;
#X connect 52 0 17 0;
#X connect 52 0 84 0;
#X connect 53 0 17 0;
#X connect 53 0 85 0;
#X connect 54 0 17 0;
#X connect 54 0 86 0;
#X connect 55 0 17 0;
#X connect 55 0 87 0;
#X connect 56 0 61 0;
#X connect 56 0 99 0;
#X connect 57 0 60 0;
#X connect 57 0 75 0;
#X connect 58 0 59 0;
#X connect 58 0 76 0;
#X connect 59 0 61 1;
#X connect 60 0 61 1;
#X connect 61 0 62 0;
#X connect 62 0 63 0;
#X connect 63 0 41 0;
#X connect 64 0 42 0;
#X connect 66 0 17 0;
#X connect 66 0 88 0;
#X connect 67 0 17 0;
#X connect 67 0 89 0;
#X connect 68 0 17 0;
#X connect 68 0 90 0;
#X connect 69 0 17 0;
#X connect 69 0 91 0;
#X connect 70 0 42 0;
#X connect 71 0 16 0;
#X connect 71 0 19 0;
#X connect 71 0 31 0;
#X connect 71 0 98 0;
#X connect 72 0 69 0;
#X connect 72 1 68 0;
#X connect 72 2 67 0;
#X connect 72 3 66 0;
#X connect 72 4 52 0;
#X connect 72 5 53 0;
#X connect 72 6 54 0;
#X connect 72 7 55 0;
#X connect 73 0 64 0;
#X connect 73 1 70 0;
#X connect 73 2 65 0;
#X connect 73 2 72 0;
#X connect 74 0 17 0;
#X connect 74 0 83 0;
#X connect 75 0 42 0;
#X connect 76 0 42 0;
#X connect 76 0 74 0;
#X connect 77 0 78 0;
#X connect 78 0 79 0;
#X connect 79 0 94 0;
#X connect 83 0 81 0;
#X connect 84 0 81 0;
#X connect 85 0 81 0;
#X connect 86 0 81 0;
#X connect 87 0 81 0;
#X connect 88 0 81 0;
#X connect 89 0 81 0;
#X connect 90 0 81 0;
#X connect 91 0 81 0;
#X connect 97 0 95 0;
#X connect 98 0 96 0;
#X connect 102 0 56 0;
#X connect 102 1 43 0;
#X connect 102 2 56 0;
#X connect 102 3 43 0;
#X coords 0 -1 1 1 85 60 1 100 100;
