#N canvas 0 50 1686 982 10;
#X obj 300 -489 soundfiler;
#X msg 635 -437 stop;
#X obj 565 -355 bng 15 250 50 0 empty empty PVOC_EVENT 17 7 0 10 -262144
-1 -1;
#X obj 550 -189 f;
#X floatatom 1540 -336 5 0 0 0 - transpo-set-#1 -, f 5;
#X floatatom 1213 -268 10 0 0 0 - speed-set-#1 -, f 10;
#X floatatom 1101 -266 7 0 0 0 - location-set-#1 -, f 7;
#X text 1210 -287 hundredths;
#X text 1539 -357 in cents;
#X text 1435 -292 normal;
#X obj 1539 -264 tgl 15 0 empty empty empty 0 -6 0 8 -262144 -1 -1
0 1;
#X obj 1308 -265 bng 15 250 50 0 empty empty empty 0 -6 0 8 -262144
-1 -1;
#X msg 1391 -315 200;
#X msg 1391 -293 100;
#X msg 1391 -271 20;
#X text 1432 -316 contract;
#X text 1436 -271 expand;
#X text 1540 -374 detune;
#X text 1101 -321 location;
#X text 1098 -305 (stops;
#X text 1103 -290 motion);
#X text 1211 -303 motion in;
#X floatatom 1653 -185 5 0 0 0 - window-size-#1 -, f 5;
#X msg 1659 -307 1024;
#X msg 1659 -285 2048;
#X msg 1659 -263 4096;
#X text 1659 -362 window size \,;
#X text 1659 -347 samples;
#X text 1700 -330 <- set;
#X text 1146 -345 ------- location controls -------;
#X text 1706 -232 (check);
#X obj 1597 -335 bng 15 250 50 0 no-detune empty empty 0 -6 0 8 -262144
-1 -1;
#X msg 1659 -241 8192;
#X obj 1809 -239 loadbang;
#X obj 509 -118 / 44100;
#X obj 507 -91 * 1000;
#X obj 144 218 bng 15 250 50 0 empty empty PVOC_EVENT 17 7 0 10 -262144
-1 -1;
#X obj -94 13 hsl 128 15 0.001 10000 0 0 empty empty empty -2 -8 0
10 -262144 -1 -1 0 1;
#X floatatom -101 130 5 0 0 0 - - -, f 5;
#X obj -128 -29 loadbang;
#X msg -128 -7 0.001;
#X obj -101 113 / 1000;
#X msg 318 -180 1 \$1;
#X obj -172 -1 f;
#X msg 289 -180 0;
#X obj 372 -282 loadbang;
#X obj 292 -151 line~;
#X obj 174 -106 *~;
#X obj 202 -106 *~;
#X text 308 -133 fade in;
#X obj 146 162 bng 20 250 50 0 empty empty play 17 7 0 10 -4034 -1
-1;
#X text -54 39 2;
#X obj 148 247 hsl 128 15 0.001 10000 0 0 empty empty PVOC_Xfade -2
-8 0 10 -262144 -1 -1 100 1;
#X floatatom 99 568 8 0 0 0 - - -, f 8;
#X obj 470 -10 loadbang;
#X msg 470 12 0.001;
#X obj 56 573 / 1000;
#X obj 195 469 f;
#X obj 95 766 hsl 128 15 0.001 10000 0 0 empty empty dly -2 -8 0 10
-262144 -1 -1 0 1;
#X floatatom 289 807 5 0 0 0 - - -, f 5;
#X obj 286 788 / 1000;
#X obj 457 83 delay;
#X obj 206 856 bng 15 250 50 0 empty empty empty 17 7 0 10 -262144
-1 -1;
#X obj 704 37 loadbang;
#X msg 716 59 100;
#X obj 532 870 hsl 128 15 0.001 30000 0 0 empty empty empty -2 -8 0
10 -262144 -1 -1 0 1;
#X floatatom 812 724 5 0 0 0 - - -, f 5;
#X obj 949 766 / 1000;
#X obj 1426 554 pack f f;
#X obj 1341 544 f;
#X obj 1426 596 line;
#X obj 243 822 hsl 128 15 0.001 10000 0 0 empty empty dly -2 -8 0 10
-262144 -1 -1 100 1;
#X obj 1413 398 loadbang;
#X obj 1312 481 delay;
#X msg 199 796 0.1;
#X floatatom 809 673 5 0 0 0 - - -, f 5;
#X obj 505 794 / 1000;
#X floatatom 340 838 5 0 0 0 - - -, f 5;
#X obj 1278 485 bng 15 250 50 0 empty empty empty 17 7 0 10 -262144
-1 -1;
#X obj 1251 457 bng 15 250 50 0 empty empty empty 17 7 0 10 -262144
-1 -1;
#X obj 306 217 bng 15 250 50 0 empty empty nominal_EVENT 17 7 0 10
-262144 -1 -1;
#X obj 309 246 hsl 128 15 0.001 10000 0 0 empty empty Nom_Xfade -2
-8 0 10 -262144 -1 -1 799 1;
#X floatatom 1494 267 5 0 0 0 - - -, f 5;
#X obj 1142 509 loadbang;
#X msg 1115 526 0.001;
#X obj 1476 320 / 1000;
#X obj 1102 675 f;
#X obj 1223 900 hsl 128 15 0.001 10000 0 0 empty empty dly -2 -8 0
10 -262144 -1 -1 0 1;
#X floatatom 1482 196 5 0 0 0 - - -, f 5;
#X obj 1751 549 / 1000;
#X obj 1102 597 delay;
#X obj 1110 652 bng 15 250 50 0 empty empty empty 17 7 0 10 -262144
-1 -1;
#X obj 634 -339 bng 15 250 50 0 empty empty nominal_event 17 7 0 10
-262144 -1 -1;
#X obj 147 294 bng 15 250 50 0 empty empty STOP 17 7 0 10 -262144 -1
-1;
#X msg 3 -536 0;
#X obj 102 -539 f;
#X floatatom 191 -551 12 0 0 0 - - -, f 12;
#X obj 121 -401 loadbang;
#X obj 660 -222 /;
#X floatatom 221 180 5 0 0 0 - - -, f 5;
#X obj 691 -187 sel 1;
#X obj 697 -211 min 1;
#X obj 159 128 hsl 350 15 0 1 0 0 empty empty TIMELINE -2 -8 0 10 -262144
-1 -1 212 1;
#X obj 705 -546 *;
#X obj 706 -511 / 44.1;
#X floatatom 802 -521 12 0 0 0 - - -, f 12;
#X obj 521 962 hsl 128 15 -4800 4800 0 0 empty empty target_transpo
-2 -8 0 10 -262144 -1 -1 6350 1;
#X obj 521 980 hsl 128 15 0 30000 0 0 empty empty empty -2 -8 0 10
-262144 -1 -1 0 1;
#X obj 612 573 f;
#X obj 626 640 line;
#X floatatom 810 861 5 0 0 0 - - -, f 5;
#X obj 599 373 / 1000;
#X obj 803 534 loadbang;
#X msg 807 553 0;
#X obj 534 561 f;
#X obj 1088 823 hsl 128 15 0.001 30000 0 0 empty empty nominal_transpo_time
-2 -8 0 10 -262144 -1 -1 0 1;
#X floatatom 1184 838 5 0 0 0 - - -, f 5;
#X obj 923 924 / 1000;
#X obj 1267 592 f;
#X obj 1089 686 hsl 128 15 0.001 30000 0 0 empty empty nominal_speed_time
-2 -8 0 10 -262144 -1 -1 0 1;
#X floatatom 1280 528 5 0 0 0 - - -, f 5;
#X obj 1234 525 / 1000;
#X obj 1023 -503 hsl 200 15 -1 1 0 0 empty empty TIMELINE -2 -8 0 10
-262144 -1 -1 9950 1;
#X obj 1004 -456 * 1000;
#X msg 1150 -527 0;
#X obj 1213 -620 loadbang;
#X obj 1040 -482 abs;
#X obj 1068 -456 * 4800;
#X obj 1072 -436 - 2400;
#X msg 1256 635 \$1 \, 100 \$2;
#X obj 1266 617 pack f f;
#X obj 526 -339 spigot;
#X obj 568 -364 tgl 15 0 empty empty empty 17 7 0 10 -262144 -1 -1
0 1;
#X msg 553 -405 0;
#X msg 589 -392 1;
#X obj 555 -457 loadbang;
#X obj 964 -259 /;
#X floatatom 889 -277 5 0 0 0 - - -, f 5;
#X obj 964 -283 * 44.1;
#X obj 864 -244 wrap;
#X floatatom 221 198 5 0 0 0 - - -, f 5;
#X obj 913 -209 sel 1;
#X obj 126 -206 c_cpfade;
#X obj 217 -206 c_cpfade;
#X msg 297 -246 0;
#X msg 27 -282 1 \$1;
#X obj 27 -263 line;
#X msg 28 -223 0 \$1;
#X obj 463 244 hsl 50 15 0 1 0 0 empty empty PVOC_stereo_widht -2 -8
0 10 -262144 -1 -1 2107 1;
#X msg 273 -100 1;
#X obj 273 -117 loadbang;
#X msg 268 -63 width \$1;
#X floatatom 54 -98 5 0 0 0 - - -, f 5;
#X obj 878 799 tgl 15 0 empty empty transpo_offset 17 7 0 10 -262144
-1 -1 1 1;
#X obj 626 703 spigot;
#X obj 699 621 loadbang;
#X msg 699 643 1;
#X obj 878 636 expr 1 -$f1;
#X obj 880 828 hsl 128 15 -4800 4800 0 0 empty empty target_transpo_offset
-2 -8 0 10 -262144 -1 -1 6350 1;
#X obj 902 674 spigot;
#X floatatom 976 843 5 0 0 0 - - -, f 5;
#X msg 519 943 -149;
#X obj 241 959 hsl 128 15 0.001 10000 0 0 empty empty dly -2 -8 0 10
-262144 -1 -1 100 1;
#X obj 629 511 delay;
#X obj 482 399 / 1000;
#X msg 1425 574 100 \, \$1 \$2;
#X msg 940 811 0;
#X msg 973 810 -149;
#X obj 1060 355 delay;
#X msg 1059 379 100;
#X obj 1044 422 bng 15 250 50 0 empty empty empty 17 7 0 10 -262144
-1 -1;
#X text -67 -5 fade in;
#X obj 926 505 loadbang;
#X floatatom 721 316 5 0 0 0 - - -, f 5;
#X floatatom 1103 739 5 0 0 0 - - -, f 5;
#X obj 1112 781 / 1000;
#X text 681 328 3;
#X text 1123 844 4;
#X text 1453 307 5;
#X floatatom 1484 46 10 0 0 0 - speed-set-#1 -, f 10;
#X floatatom 220 152 7 0 0 0 - location-set-#1 -, f 7;
#X text 221 166 location;
#X text 1494 58 speed;
#X floatatom 1575 54 12 0 0 0 - transpo-set-#1 -, f 12;
#X text 1574 37 in cents;
#X text 1575 20 detune;
#X floatatom 1905 301 5 0 0 0 - window-size-#1 -, f 5;
#X obj 1903 223 vradio 15 1 0 5 empty empty empty 0 -8 0 10 -262144
-1 -1 3;
#X text 1918 223 512;
#X text 1918 237 1024;
#X text 1918 252 2048;
#X text 1919 266 4096;
#X text 1919 282 8192;
#X obj 1630 -510 sel 0 1 2 3 4;
#X text 1902 186 window size \,;
#X text 1902 201 samples;
#X obj 1845 527 tgl 15 0 empty empty wide_on_pvoc 17 7 0 10 -262144
-1 -1 0 1;
#X obj 1568 418 loadbang;
#X msg 1568 440 0;
#X obj 1635 612 spigot;
#X msg 1638 477 0 \, 1 \$1;
#X obj 1730 447 f;
#X obj 1648 509 line;
#X msg 1711 529 1 \, 0 \$1;
#X obj 1748 484 f;
#X floatatom 807 814 8 0 0 0 - - -, f 8;
#X obj 520 928 bng 15 250 50 0 empty empty -149 17 7 0 10 -262144 -1
-1;
#X msg 878 781 -149;
#X obj 878 782 bng 15 250 50 0 empty empty -149 17 7 0 10 -262144 -1
-1;
#X obj 1857 595 vsl 15 128 0.04 4 1 0 empty empty empty 0 -9 0 10 -262144
-1 -1 9076 1;
#X obj 302 -356 *~;
#X msg 1236 881 \$1 20;
#X obj 1215 913 line;
#X obj 269 -359 *~;
#X msg 1050 763 1;
#X obj 1042 727 loadbang;
#X floatatom 1857 577 5 0 0 0 - - -, f 5;
#X msg 544 615 \$1 \, \$2 \$3;
#X obj 538 588 pack f f f;
#X obj 1223 -610 loadbang;
#X msg 627 619 \$3 \, \$1 \$2;
#X obj 628 599 pack f f f;
#X obj 849 687 bng 15 250 50 0 empty empty nom_speed 17 7 0 10 -262144
-1 -1;
#X msg 856 722 100;
#X obj 1897 342 vradio 15 1 0 4 empty empty SAMPLE_RATE 0 -8 0 10 -262144
-1 -1 1;
#X text 1920 335 44.1 kHz;
#X text 1912 372 88.2 kHz;
#X text 1912 356 48 kHz;
#X text 1912 387 96 kHz;
#X obj 1863 46 sel 0 1 2 3;
#X msg 1869 83 44.1;
#X msg 1870 105 48;
#X msg 1871 127 88.2;
#X msg 1870 152 96;
#X obj 1705 36 s sampleperms-\$1;
#X obj 437 -456 r sampleperms-\$1;
#X msg 430 -381 sr \$1;
#X obj 438 -410 * 1000;
#X obj 393 -456 t b f;
#X obj 598 -149 r sampleperms-\$1;
#X obj 598 -128 * 1000;
#X obj 598 -108 t b f;
#X obj 1017 -347 r sampleperms-\$1;
#X obj 1662 72 s sampleperms-\$2;
#X obj 850 -604 r sampleperms-\$1;
#X obj 391 -574 f \$1;
#X obj 471 -607 loadbang;
#X obj 145 343 bng 15 250 50 0 empty empty Load_Audio 17 7 0 10 -262144
-1 -1;
#X obj 316 -619 openpanel;
#X obj 162 466 bng 15 250 50 0 empty empty Load_pvoc_audio 17 7 0 10
-262144 -1 -1;
#X obj 196 528 s loadnomfile-\$1;
#X obj 250 495 s loadpvocfile-\$1;
#X obj 263 -648 r loadnomfile-\$1;
#X obj 574 -582 s read-sample-\$1;
#X obj 608 -634 r loadpvocfile-\$1;
#X obj 627 -612 openpanel;
#X obj 24 200 s play-\$1;
#X obj -130 317 s nominal_event-\$1;
#X obj 33 341 s stop-\$1;
#X obj -10 271 s pvoc_event-\$1;
#X obj 235 66 r play-\$1;
#X obj 454 60 r pvoc_event-\$1;
#X obj 1102 574 r nominal_event-\$1;
#X obj 467 485 r nominal_event-\$1;
#X obj 608 484 r pvoc_event-\$1;
#X obj 622 729 s transpo-\$1;
#X obj 901 728 s transpo-\$1;
#X obj 1254 762 s speed-set-\$1;
#X obj 1620 718 s autowide-\$1;
#X obj 1402 458 s pvoc_time_speed-\$1;
#X obj 1809 494 r pvoc_time_speed-\$1;
#X obj 1765 457 r nominal_event-\$1;
#X obj 1785 426 r time_speed-\$1;
#X obj 1662 424 r pvoc_event-\$1;
#X obj 1102 696 s nominal_xfade-\$1;
#X obj 270 482 s pvoc_xfade-\$1;
#X obj -138 71 s fadein-\$1;
#X obj 508 -68 s location-\$1;
#X obj 1101 -244 s location-\$1;
#X obj 1213 -244 s speed-\$1;
#X obj 1303 -241 s rewind-\$1;
#X obj 1391 -244 s auto-\$1;
#X obj 1540 -313 s transpo-\$1;
#X obj 1539 -244 s lock-\$1;
#X obj 1695 -198 s window-size-\$1;
#X obj 721 -153 s nominal-reset-\$1;
#X obj 508 -254 r nominal-location-\$1;
#X obj 505 -290 r sampsize-\$1;
#X obj 631 -359 r nominal_event-\$1;
#X obj 672 -411 r pvoc_event-\$1;
#X obj 25 -304 r pvoc_xfade-\$1;
#X obj 28 -241 r nominal_xfade-\$1;
#X obj 324 -79 r autowide-\$1;
#X obj 37 -575 r nominal_event-\$1;
#X obj 4 -594 r nominal-reset-\$1;
#X obj 27 -553 r play-\$1;
#X obj 284 -467 s sampsize-\$1;
#X obj 701 -577 r sampsize-\$1;
#X obj -120 -75 s timelinebang-\$1;
#X obj 422 -216 s pvoc_time-\$1;
#X obj 1009 -392 s speed-\$1;
#X obj 1078 -386 s transpo-\$1;
#X obj 912 -314 r sampsize-\$1;
#X obj 809 413 s time_speed-\$1;
#X obj 1279 432 r pvoc_event-\$1;
#X obj 623 -478 r stop-\$1;
#X obj 573 -554 insample \$1 \$2;
#X obj 814 -562 t b f;
#X obj 76 -475 pack f f;
#X obj 75 -498 f \$1;
#X obj 138 -631 loadbang;
#X obj 134 -494 f \$2;
#X obj 143 -476 pack f f;
#N canvas 800 318 628 402 sample-nominal 0;
#N canvas 0 50 450 250 (subpatch) 0;
#X array samp-nominal-\$1 1 float 2;
#X coords 0 1 1 -1 200 140 1 0 0;
#X restore 28 -71 graph;
#N canvas 0 50 450 250 (subpatch) 0;
#X array samp-nominal-\$2 1 float 2;
#X coords 0 1 1 -1 200 140 1 0 0;
#X restore 232 -71 graph;
#X restore 393 -630 pd sample-nominal \$1 \$2;
#X obj 423 -576 f \$2;
#X obj 325 -549 pack s f f;
#X obj 876 -413 r location-pvoc-\$1;
#X obj 157 -338 s_playtable \$1;
#X obj 50 -339 s_playtable \$1;
#X obj 386 -263 r fadein-\$1;
#X msg 75 -449 samp-nominal-\$1 1 1 \$2;
#X msg 84 -429 samp-nominal-\$1 1 1 \$2;
#X obj 92 -521 t b f;
#X obj 759 -437 s location-set-\$1;
#X obj 203 -273 e_stereowidener \$1;
#X obj 780 -467 s location-set-\$2;
#X obj 910 753 s transpo-\$2;
#X obj 617 750 s transpo-\$2;
#X obj 1117 -221 s location-\$2;
#X obj 1229 -221 s speed-\$2;
#X obj 1319 -218 s rewind-\$2;
#X obj 1407 -221 s auto-\$2;
#X obj 1692 -175 s window-size-\$2;
#X obj 1155 769 s speed-set-\$2;
#X obj 254 -606 bng 15 250 50 0 empty empty empty 17 7 0 10 -262144
-1 -1;
#X obj 160 -614 s loadedfile-\$1;
#X obj 1553 -126 r loadedfile-\$1;
#X text 119 750 PVOC_XFADE;
#X obj 175 -51 s~ \$1-tomaster;
#X obj 203 -29 s~ \$2-tomaster;
#X obj 32 94 r global_play;
#X obj -8 111 r global_pvoc_event;
#X obj -7 131 r global_nom_event;
#X obj 28 152 r global_stop;
#X obj 283 26 r global_timeline;
#X obj 319 801 r global_fadein;
#X obj 1747 810 r global_wide_target;
#X obj 1736 839 r global_widemode;
#X msg 1659 -329 512;
#X obj 281 -597 loadbang;
#X obj 736 -39 r speedShift;
#X obj 183 -581 r location-pvoc-\$1;
#X floatatom 145 262 5 0 0 0 - - -, f 5;
#X obj 1502 732 loadbang;
#X msg 1602 828 1.075;
#X msg 1561 584 0.43;
#X obj 381 262 bng 15 250 50 0 empty empty default 17 7 0 10 -262144
-1 -1;
#X obj 460 261 bng 15 250 50 0 empty empty default 17 7 0 10 -262144
-1 -1;
#X obj 219 263 bng 15 250 50 0 empty empty default 17 7 0 10 -262144
-1 -1;
#X floatatom 306 262 5 0 0 0 - - -, f 5;
#X obj 404 418 r shift-;
#X obj 395 446 r shift+;
#X obj 412 486 r shift;
#X obj 458 285 bng 15 250 50 0 empty empty + 17 7 0 10 -262144 -1 -1
;
#X obj 422 285 bng 15 250 50 0 empty empty - 17 7 0 10 -262144 -1 -1
;
#X msg 289 -529 read -resize -maxsize 2e+007 \$1 samp-nominal-\$2 samp-nominal-\$3
;
#X obj -1 679 loadbang;
#X msg 1829 -75 1;
#X msg 122 -380 sr 48000;
#X obj 565 366 tgl 25 0 empty empty empty 17 7 0 10 -262144 -1 -1 0
1;
#X obj 653 237 loadbang;
#X obj 551 427 sel 0 1;
#X obj 571 450 bng 15 250 50 0 empty empty empty 17 7 0 10 -262144
-1 -1;
#X obj 818 211 t b b;
#X msg 821 243 0 250;
#X obj 908 209 delay 300;
#X msg 705 262 0;
#X obj 294 152 Keyboard_LeftRight;
#X msg 346 -596 lullaby_set.wav;
#X obj -98 202 r shiftPVOC2;
#X obj -97 221 r shiftNOM2;
#X obj 1291 732 r speedShift2;
#X obj 377 -188 r ShiftPause2;
#X obj 429 -172 r ShiftStart2;
#X text 352 321 Move Left or Right;
#X text 353 351 or in reverse mode;
#X obj 561 140 r leftmove;
#X obj 559 166 r Rightmove;
#X obj 426 174 bng 20 250 50 0 empty empty <-- -19 10 0 10 -262144
-1 -1;
#X obj 451 174 bng 20 250 50 0 empty empty --> 22 10 0 10 -262144 -1
-1;
#X msg 377 -166 0.3 1500;
#X msg 420 -147 1 250;
#X obj 247 -429 I07.phase.vocoder \$1;
#X obj 274 -408 I07.phase.vocoder \$2;
#X msg 1769 -39 3;
#X obj 1789 -132 delay 50;
#X msg 677 374 0;
#X obj 656 349 sel 1;
#X obj 656 398 s toggle2;
#X obj 611 288 r toggle1;
#X obj 612 312 r toggle3;
#X text 457 368 Enable/Disable;
#X text 312 305 By default the music is stopped;
#X text 310 336 To play the music in forward mode;
#X msg 1013 228 1;
#X obj 899 252 array size samp-nominal-\$1;
#X obj 913 284 array size samp-nominal-\$2;
#X obj 1120 250 array size \$1-sample;
#X obj 1127 290 array size \$2-sample;
#X msg 260 -323 stop;
#X obj 487 465 delay 400;
#X msg 505 431 0;
#X msg -96 648 236;
#X msg 1502 765 629;
#X connect 0 0 296 0;
#X connect 1 0 11 0;
#X connect 1 0 44 0;
#X connect 1 0 317 1;
#X connect 1 0 318 1;
#X connect 2 0 3 0;
#X connect 3 0 299 0;
#X connect 4 0 282 0;
#X connect 5 0 279 0;
#X connect 6 0 278 0;
#X connect 6 0 328 0;
#X connect 10 0 283 0;
#X connect 11 0 280 0;
#X connect 12 0 281 0;
#X connect 13 0 281 0;
#X connect 14 0 281 0;
#X connect 23 0 284 0;
#X connect 23 0 332 0;
#X connect 24 0 284 0;
#X connect 24 0 332 0;
#X connect 25 0 284 0;
#X connect 25 0 332 0;
#X connect 32 0 284 0;
#X connect 32 0 332 0;
#X connect 33 0 367 0;
#X connect 33 0 395 0;
#X connect 34 0 35 0;
#X connect 35 0 277 0;
#X connect 36 0 259 0;
#X connect 37 0 41 0;
#X connect 37 0 43 1;
#X connect 39 0 40 0;
#X connect 40 0 37 0;
#X connect 41 0 38 0;
#X connect 42 0 46 0;
#X connect 43 0 276 0;
#X connect 44 0 46 0;
#X connect 45 0 44 0;
#X connect 45 0 144 0;
#X connect 46 0 48 1;
#X connect 46 0 47 1;
#X connect 47 0 338 0;
#X connect 48 0 339 0;
#X connect 50 0 256 0;
#X connect 52 0 56 0;
#X connect 52 0 57 1;
#X connect 52 0 71 0;
#X connect 52 0 352 0;
#X connect 54 0 55 0;
#X connect 55 0 52 0;
#X connect 55 0 58 0;
#X connect 56 0 53 0;
#X connect 57 0 275 0;
#X connect 58 0 60 0;
#X connect 58 0 61 1;
#X connect 60 0 59 0;
#X connect 61 0 57 0;
#X connect 61 0 62 0;
#X connect 63 0 64 0;
#X connect 65 0 67 0;
#X connect 65 0 68 1;
#X connect 65 0 107 0;
#X connect 65 0 303 0;
#X connect 67 0 66 0;
#X connect 68 0 165 0;
#X connect 69 0 68 0;
#X connect 70 0 118 1;
#X connect 71 0 73 1;
#X connect 71 0 76 0;
#X connect 71 0 162 0;
#X connect 72 0 74 0;
#X connect 73 0 69 0;
#X connect 73 0 78 0;
#X connect 74 0 71 0;
#X connect 76 0 77 0;
#X connect 80 0 257 0;
#X connect 81 0 85 0;
#X connect 81 0 86 1;
#X connect 81 0 359 0;
#X connect 83 0 84 0;
#X connect 84 0 81 0;
#X connect 84 0 87 0;
#X connect 85 0 82 0;
#X connect 86 0 274 0;
#X connect 87 0 89 0;
#X connect 87 0 90 1;
#X connect 89 0 88 0;
#X connect 90 0 86 0;
#X connect 90 0 91 0;
#X connect 93 0 258 0;
#X connect 94 0 95 0;
#X connect 95 0 322 0;
#X connect 96 0 95 1;
#X connect 97 0 368 0;
#X connect 98 0 99 0;
#X connect 98 0 101 0;
#X connect 98 0 131 0;
#X connect 100 0 285 0;
#X connect 101 0 100 0;
#X connect 102 0 103 0;
#X connect 102 0 298 0;
#X connect 103 0 104 0;
#X connect 104 0 105 0;
#X connect 104 0 323 0;
#X connect 104 0 325 0;
#X connect 106 0 108 1;
#X connect 106 0 205 0;
#X connect 107 0 111 0;
#X connect 107 0 221 1;
#X connect 108 0 221 0;
#X connect 109 0 114 1;
#X connect 109 0 154 0;
#X connect 111 0 110 0;
#X connect 112 0 113 0;
#X connect 113 0 106 0;
#X connect 114 0 218 0;
#X connect 115 0 117 0;
#X connect 115 0 218 2;
#X connect 117 0 116 0;
#X connect 118 0 130 0;
#X connect 119 0 121 0;
#X connect 119 0 130 1;
#X connect 119 0 115 0;
#X connect 119 0 168 1;
#X connect 119 0 87 0;
#X connect 119 0 175 0;
#X connect 119 0 269 0;
#X connect 121 0 120 0;
#X connect 122 0 126 0;
#X connect 124 0 122 0;
#X connect 125 0 124 0;
#X connect 126 0 127 0;
#X connect 127 0 128 0;
#X connect 129 0 70 0;
#X connect 130 0 129 0;
#X connect 131 0 102 0;
#X connect 132 0 131 1;
#X connect 133 0 132 0;
#X connect 134 0 132 0;
#X connect 135 0 134 0;
#X connect 136 0 137 0;
#X connect 137 0 139 0;
#X connect 138 0 136 0;
#X connect 139 0 140 0;
#X connect 140 0 141 0;
#X connect 140 0 102 0;
#X connect 142 0 47 0;
#X connect 143 0 48 0;
#X connect 144 0 142 2;
#X connect 144 0 143 2;
#X connect 145 0 146 0;
#X connect 146 0 142 2;
#X connect 146 0 143 2;
#X connect 146 0 152 0;
#X connect 147 0 146 0;
#X connect 148 0 151 0;
#X connect 149 0 148 0;
#X connect 150 0 149 0;
#X connect 151 0 324 2;
#X connect 153 0 154 1;
#X connect 153 0 157 0;
#X connect 154 0 265 0;
#X connect 154 0 327 0;
#X connect 155 0 156 0;
#X connect 156 0 153 0;
#X connect 157 0 159 1;
#X connect 158 0 159 0;
#X connect 158 0 160 0;
#X connect 158 0 218 1;
#X connect 158 0 221 2;
#X connect 159 0 266 0;
#X connect 159 0 326 0;
#X connect 161 0 106 0;
#X connect 162 0 163 1;
#X connect 162 0 164 0;
#X connect 163 0 108 0;
#X connect 164 0 173 0;
#X connect 165 0 70 0;
#X connect 166 0 158 0;
#X connect 167 0 158 0;
#X connect 168 0 169 0;
#X connect 168 0 170 0;
#X connect 169 0 70 0;
#X connect 172 0 166 0;
#X connect 175 0 174 0;
#X connect 187 0 193 0;
#X connect 193 0 348 0;
#X connect 193 1 23 0;
#X connect 193 2 24 0;
#X connect 193 3 25 0;
#X connect 193 4 32 0;
#X connect 196 0 199 1;
#X connect 197 0 198 0;
#X connect 198 0 196 0;
#X connect 199 0 268 0;
#X connect 200 0 202 0;
#X connect 201 0 200 0;
#X connect 202 0 199 0;
#X connect 203 0 202 0;
#X connect 204 0 203 0;
#X connect 206 0 161 0;
#X connect 207 0 158 0;
#X connect 208 0 207 0;
#X connect 209 0 211 0;
#X connect 209 0 216 0;
#X connect 210 0 324 1;
#X connect 211 0 212 0;
#X connect 212 0 210 1;
#X connect 212 0 213 1;
#X connect 213 0 324 0;
#X connect 214 0 209 0;
#X connect 215 0 214 0;
#X connect 217 0 109 0;
#X connect 218 0 217 0;
#X connect 220 0 109 0;
#X connect 221 0 220 0;
#X connect 222 0 223 0;
#X connect 224 0 229 0;
#X connect 229 0 230 0;
#X connect 229 1 231 0;
#X connect 229 2 232 0;
#X connect 229 3 233 0;
#X connect 230 0 234 0;
#X connect 230 0 243 0;
#X connect 231 0 234 0;
#X connect 231 0 243 0;
#X connect 232 0 234 0;
#X connect 232 0 243 0;
#X connect 233 0 234 0;
#X connect 233 0 243 0;
#X connect 235 0 238 0;
#X connect 236 0 317 1;
#X connect 236 0 318 1;
#X connect 237 0 236 0;
#X connect 238 0 95 0;
#X connect 238 1 237 0;
#X connect 239 0 240 0;
#X connect 240 0 241 0;
#X connect 241 0 34 0;
#X connect 241 1 34 1;
#X connect 242 0 138 1;
#X connect 244 0 307 0;
#X connect 245 0 315 1;
#X connect 246 0 245 0;
#X connect 246 0 314 0;
#X connect 247 0 250 0;
#X connect 248 0 253 0;
#X connect 248 0 315 0;
#X connect 248 0 334 0;
#X connect 249 0 251 0;
#X connect 252 0 248 0;
#X connect 254 0 255 0;
#X connect 255 0 253 0;
#X connect 260 0 43 0;
#X connect 261 0 61 0;
#X connect 262 0 90 0;
#X connect 263 0 114 0;
#X connect 263 0 168 0;
#X connect 263 0 118 0;
#X connect 264 0 163 0;
#X connect 270 0 204 1;
#X connect 271 0 204 0;
#X connect 272 0 201 1;
#X connect 273 0 201 0;
#X connect 286 0 3 1;
#X connect 286 0 98 0;
#X connect 287 0 98 1;
#X connect 288 0 92 0;
#X connect 288 0 134 0;
#X connect 289 0 2 0;
#X connect 289 0 133 0;
#X connect 290 0 145 0;
#X connect 291 0 147 0;
#X connect 292 0 151 0;
#X connect 293 0 95 0;
#X connect 294 0 94 0;
#X connect 295 0 94 0;
#X connect 297 0 103 1;
#X connect 302 0 136 1;
#X connect 304 0 73 0;
#X connect 304 0 79 0;
#X connect 305 0 1 0;
#X connect 307 0 104 0;
#X connect 307 1 104 1;
#X connect 308 0 320 0;
#X connect 309 0 308 0;
#X connect 311 0 312 0;
#X connect 312 0 321 0;
#X connect 314 0 315 2;
#X connect 315 0 365 0;
#X connect 316 0 138 0;
#X connect 317 0 143 0;
#X connect 318 0 142 0;
#X connect 319 0 42 0;
#X connect 320 0 318 0;
#X connect 321 0 317 0;
#X connect 322 0 309 0;
#X connect 322 0 311 0;
#X connect 322 1 308 1;
#X connect 322 1 312 1;
#X connect 324 0 142 1;
#X connect 324 1 143 1;
#X connect 334 0 335 0;
#X connect 336 0 394 0;
#X connect 336 0 367 0;
#X connect 340 0 50 0;
#X connect 341 0 36 0;
#X connect 342 0 80 0;
#X connect 343 0 93 0;
#X connect 344 0 102 0;
#X connect 345 0 37 0;
#X connect 346 0 148 0;
#X connect 347 0 196 0;
#X connect 348 0 284 0;
#X connect 348 0 332 0;
#X connect 349 0 378 0;
#X connect 351 0 96 0;
#X connect 353 0 413 0;
#X connect 353 0 354 0;
#X connect 353 0 355 0;
#X connect 354 0 209 0;
#X connect 355 0 148 0;
#X connect 356 0 413 0;
#X connect 357 0 355 0;
#X connect 358 0 412 0;
#X connect 360 0 364 0;
#X connect 361 0 363 0;
#X connect 365 0 0 0;
#X connect 366 0 412 0;
#X connect 367 0 224 0;
#X connect 368 0 317 1;
#X connect 368 0 318 1;
#X connect 369 0 371 0;
#X connect 369 0 397 0;
#X connect 370 0 376 0;
#X connect 371 0 373 0;
#X connect 371 1 372 0;
#X connect 372 0 410 0;
#X connect 373 0 375 0;
#X connect 373 1 374 0;
#X connect 374 0 46 0;
#X connect 375 0 404 0;
#X connect 375 0 409 0;
#X connect 376 0 369 0;
#X connect 378 0 315 0;
#X connect 378 0 253 0;
#X connect 379 0 36 0;
#X connect 380 0 80 0;
#X connect 381 0 267 0;
#X connect 381 0 333 0;
#X connect 382 0 390 0;
#X connect 383 0 391 0;
#X connect 386 0 388 0;
#X connect 387 0 389 0;
#X connect 390 0 46 0;
#X connect 391 0 46 0;
#X connect 392 0 213 0;
#X connect 393 0 210 0;
#X connect 394 0 187 0;
#X connect 395 0 394 0;
#X connect 396 0 398 0;
#X connect 397 0 396 0;
#X connect 399 0 369 0;
#X connect 400 0 369 0;
#X connect 404 0 405 0;
#X connect 404 0 406 0;
#X connect 404 0 407 0;
#X connect 404 0 408 0;
#X connect 409 0 318 1;
#X connect 409 0 317 1;
#X connect 410 0 378 0;
#X connect 410 0 36 0;
#X connect 410 0 411 0;
#X connect 411 0 278 0;
#X connect 412 0 52 0;
#X connect 413 0 81 0;
#X coords 250 -1 1 1 500 300 1 100 100;
