#N canvas 0 50 944 982 10;
#X obj 377 24 keyname;
#X symbolatom 423 56 10 0 0 0 - - -, f 10;
#X obj 423 75 sel Left Right;
#X msg 386 231 -100;
#X msg 453 225 100;
#X obj 556 -21 keyup;
#X obj 550 145 f 0;
#X msg 569 120 0;
#X msg 599 117 1;
#X obj 552 168 sel 1;
#X msg 530 249 0;
#X obj 532 225 bng 15 250 50 0 empty empty empty 17 7 0 10 -262144
-1 -1;
#X obj 405 125 change;
#X msg 417 97 889;
#X msg 464 100 890;
#X msg 490 95 0, f 8;
#X obj 463 125 change;
#X obj 402 151 sel 889;
#X obj 466 151 sel 890;
#X obj 388 192 bng 15 250 50 0 empty empty empty 17 7 0 10 -262144
-1 -1;
#X obj 453 192 bng 15 250 50 0 empty empty empty 17 7 0 10 -262144
-1 -1;
#X obj 573 67 spigot;
#X msg 647 27 0;
#X msg 677 58 1;
#X obj 610 46 tgl 15 0 empty empty empty 17 7 0 10 -262144 -1 -1 0
1;
#X obj 575 91 bng 15 250 50 0 empty empty empty 17 7 0 10 -262144 -1
-1;
#X obj 450 423 line;
#X floatatom 168 123 5 0 0 0 Speed. - -, f 5;
#X obj 580 1 delay 2;
#X obj 552 192 delay 2;
#X msg 450 401 \$1 180;
#X text 536 538 nominal;
#X obj 629 513 bng 15 250 50 0 empty empty empty 17 7 0 10 -262144
-1 -1;
#X text 631 534 pvoc;
#X obj 385 812 s shiftPVOC2;
#X obj 484 813 s shiftNOM2;
#X obj 569 812 s speedShift2;
#X obj 521 516 sel 100;
#X obj 378 544 bng 15 250 50 0 empty empty empty 17 7 0 10 -262144
-1 -1;
#X msg 378 562 1;
#X obj 345 589 f;
#X obj 343 546 +;
#X obj 337 620 % 2;
#X floatatom 332 655 5 0 0 0 - - -, f 5;
#X obj 333 679 sel 1;
#X obj 257 546 loadbang;
#X obj 522 549 bng 15 250 50 0 empty empty empty 17 7 0 10 -262144
-1 -1;
#X msg 522 567 1;
#X obj 489 594 f;
#X obj 487 551 +;
#X obj 481 625 % 2;
#X floatatom 476 660 5 0 0 0 - - -, f 5;
#X obj 477 684 sel 1;
#X obj 490 722 bng 15 250 50 0 empty empty empty 17 7 0 10 -262144
-1 -1;
#X obj 416 559 loadbang;
#X msg 416 581 0;
#X obj 674 813 s ShiftPause2;
#X obj 376 515 sel 0;
#X obj 322 709 bng 15 250 50 0 empty empty empty 17 7 0 10 -262144
-1 -1;
#X msg 257 568 1;
#X obj 316 337 s ShiftStart2;
#X obj 242 234 s leftmove;
#X obj 240 260 s Rightmove;
#X connect 0 1 1 0;
#X connect 1 0 2 0;
#X connect 2 0 13 0;
#X connect 2 0 23 0;
#X connect 2 1 14 0;
#X connect 2 1 23 0;
#X connect 2 2 15 0;
#X connect 2 2 22 0;
#X connect 3 0 30 0;
#X connect 4 0 30 0;
#X connect 5 0 28 0;
#X connect 6 0 9 0;
#X connect 7 0 6 1;
#X connect 8 0 6 1;
#X connect 9 0 7 0;
#X connect 9 0 29 0;
#X connect 10 0 30 0;
#X connect 10 0 32 0;
#X connect 11 0 10 0;
#X connect 12 0 17 0;
#X connect 13 0 12 0;
#X connect 14 0 16 0;
#X connect 15 0 16 0;
#X connect 15 0 12 0;
#X connect 16 0 18 0;
#X connect 17 0 19 0;
#X connect 18 0 20 0;
#X connect 19 0 8 0;
#X connect 19 0 3 0;
#X connect 19 0 60 0;
#X connect 19 0 61 0;
#X connect 20 0 8 0;
#X connect 20 0 4 0;
#X connect 20 0 60 0;
#X connect 20 0 62 0;
#X connect 21 0 25 0;
#X connect 22 0 24 0;
#X connect 23 0 24 0;
#X connect 24 0 21 1;
#X connect 25 0 6 0;
#X connect 26 0 27 0;
#X connect 27 0 36 0;
#X connect 27 0 37 0;
#X connect 27 0 57 0;
#X connect 28 0 21 0;
#X connect 29 0 11 0;
#X connect 29 0 15 0;
#X connect 30 0 26 0;
#X connect 32 0 34 0;
#X connect 37 0 46 0;
#X connect 38 0 39 0;
#X connect 38 0 40 0;
#X connect 39 0 41 0;
#X connect 40 0 41 1;
#X connect 40 0 42 0;
#X connect 41 0 40 1;
#X connect 42 0 43 0;
#X connect 43 0 44 0;
#X connect 44 0 58 0;
#X connect 45 0 59 0;
#X connect 46 0 47 0;
#X connect 46 0 48 0;
#X connect 47 0 49 0;
#X connect 48 0 49 1;
#X connect 48 0 50 0;
#X connect 49 0 48 1;
#X connect 50 0 51 0;
#X connect 51 0 52 0;
#X connect 52 0 53 0;
#X connect 53 0 35 0;
#X connect 54 0 55 0;
#X connect 55 0 48 0;
#X connect 57 0 38 0;
#X connect 58 0 56 0;
#X connect 59 0 40 0;
#X coords 0 -1 1 1 200 60 1 100 100;
